<svg xmlns="http://www.w3.org/2000/svg" version="1.1" xmlns:xlink="http://www.w3.org/1999/xlink" xmlns:svgjs="http://svgjs.dev/svgjs" width="1500" height="1500" viewBox="0 0 1500 1500"><rect width="1500" height="1500" fill="#ffffff"></rect><g transform="matrix(0.6666666666666666,0,0,0.6666666666666666,250.10666666666668,432.9613359999999)"><svg viewBox="0 0 375 238" data-background-color="#fff53b" preserveAspectRatio="xMidYMid meet" height="952" width="1500" xmlns="http://www.w3.org/2000/svg" xmlns:xlink="http://www.w3.org/1999/xlink"><g id="tight-bounds" transform="matrix(1,0,0,1,-0.03976000000000113,-0.1100709999999765)"><svg viewBox="0 0 375.07953 238.220572" height="238.220572" width="375.07953"><g><svg></svg></g><g><svg viewBox="0 0 375.07953 238.220572" height="238.220572" width="375.07953"><g transform="matrix(1,0,0,1,-10.22024,-8.979430000000008)"><path d="M10.22 238.221v-229.242h375.08v229.242h-20.372v-4.719h15.653v-219.804h-365.642v219.804l15.653 0 0 4.719z" fill="#000000" fill-rule="nonzero" stroke="none" stroke-width="1" stroke-linecap="butt" stroke-linejoin="miter" stroke-miterlimit="10" stroke-dasharray="" stroke-dashoffset="0" font-family="none" font-weight="none" font-size="none" text-anchor="none" style="mix-blend-mode: normal" data-fill-palette-color="tertiary"></path><g><path transform="translate(43.89342,245.66855) scale(0.58902,0.58902)" d="M8 0.7c-1.233 0-1.85-1.267-1.85-3.8v0c0-1.6-0.69-7.327-2.07-17.18-1.387-9.847-2.263-15.22-2.63-16.12v0c0.433-0.8 1.017-1.2 1.75-1.2v0c0.767 0 1.483 1.733 2.15 5.2v0c0.633 3.667 1.167 7.867 1.6 12.6v0l0.35 4.05c0.2 2.267 0.317 3.417 0.35 3.45v0l0.5-4.2 0.3-2.6c0.433-3.8 0.717-6.483 0.85-8.05v0c0.167-2.067 0.25-3.483 0.25-4.25v0-0.95c0-0.367 0.133-0.717 0.4-1.05 0.267-0.333 0.567-0.5 0.9-0.5v0c1.2 0 1.8 0.5 1.8 1.5v0 0.75c0 1.9 0.193 3.94 0.58 6.12 0.38 2.187 0.937 4.797 1.67 7.83v0c0.467 1.767 0.933 3.917 1.4 6.45v0c0.1-1.1 0.417-3.767 0.95-8v0c0.533-3.867 0.927-7.16 1.18-9.88 0.247-2.713 0.37-5.253 0.37-7.62v0c0-0.767 0.127-1.31 0.38-1.63 0.247-0.313 0.72-0.47 1.42-0.47v0c0.4 0 0.76 0.123 1.08 0.37 0.313 0.253 0.47 0.58 0.47 0.98v0c0 0.367-0.167 0.75-0.5 1.15v0c0 2.4-0.183 5.207-0.55 8.42-0.367 3.22-0.817 6.28-1.35 9.18v0c-0.533 2.833-0.983 5.873-1.35 9.12-0.367 3.253-0.55 6.113-0.55 8.58v0c0 0.533-0.123 0.96-0.37 1.28-0.253 0.313-0.63 0.47-1.13 0.47v0c-0.367 0-0.8-0.683-1.3-2.05v0c-0.633-1.9-1.417-5.683-2.35-11.35v0l-0.9-5.85-0.45-3.25c-0.433 3.033-0.757 5.473-0.97 7.32-0.22 1.853-0.43 4.047-0.63 6.58v0c-0.233 2.433-0.35 4.833-0.35 7.2v0c0 0.333-0.143 0.65-0.43 0.95-0.28 0.3-0.603 0.45-0.97 0.45zM30.05 0.65c-0.433 0-0.823-0.15-1.17-0.45-0.353-0.3-0.547-0.667-0.58-1.1v0-1.3-1c-0.033-0.3-0.05-0.65-0.05-1.05v0c0-0.7-0.05-1.767-0.15-3.2v0l-0.1-3.2c0-1.633 0.05-4.067 0.15-7.3v0c0.133-2.9 0.2-5.333 0.2-7.3v0c0-0.467-0.05-1.167-0.15-2.1v0c-0.1-0.967-0.15-1.667-0.15-2.1v0c0-2.367 0.7-3.55 2.1-3.55v0c1.1 0 2.377 0.217 3.83 0.65 1.447 0.433 2.17 0.95 2.17 1.55v0c0 0.333-0.14 0.64-0.42 0.92-0.287 0.287-0.63 0.513-1.03 0.68v0c-1.4-0.5-2.667-0.833-3.8-1v0c0.033 0.5 0.05 1.217 0.05 2.15v0c0 1.333-0.017 2.533-0.05 3.6v0c-0.1 1.6-0.15 2.8-0.15 3.6v0l0.15 0.8 0.8-0.05c0.267-0.033 0.6-0.05 1-0.05v0c1.6 0 2.4 0.467 2.4 1.4v0c0 0.367-0.15 0.677-0.45 0.93-0.3 0.247-0.683 0.37-1.15 0.37v0c-0.6 0-1.067-0.033-1.4-0.1v0h-1.25c0.067 0.867 0.1 2.133 0.1 3.8v0c0 1.667-0.017 3.167-0.05 4.5v0c-0.1 2.033-0.15 3.55-0.15 4.55v0c0 1.867 0.033 2.8 0.1 2.8v0l1.65-0.05c0.567-0.033 1.25-0.05 2.05-0.05v0c1.267 0 1.9 0.4 1.9 1.2v0c0 0.467-0.207 0.827-0.62 1.08-0.42 0.247-0.93 0.37-1.53 0.37v0zM58.8 0.8c-1.2-0.4-2.683-0.6-4.45-0.6v0c-0.533 0.333-1.1 0.5-1.7 0.5v0c-0.4 0-0.74-0.173-1.02-0.52-0.287-0.353-0.43-0.73-0.43-1.13v0c0-2.8 0.117-6.533 0.35-11.2v0c0.2-4.967 0.3-8.683 0.3-11.15v0-0.35c-0.2-2.1-0.3-3.667-0.3-4.7v0c0-3.167 0.583-4.75 1.75-4.75v0c0.333 0 0.627 0.123 0.88 0.37 0.247 0.253 0.37 0.547 0.37 0.88v0c0 0.4-0.05 1.033-0.15 1.9v0c-0.1 0.833-0.15 1.467-0.15 1.9v0c0 2.233 0.017 4.25 0.05 6.05v0c0.033 1.767 0.05 3.767 0.05 6v0c-0.167 0.5-0.25 1.2-0.25 2.1v0 0.6l-0.1 3.95c-0.067 1.167-0.1 2.5-0.1 4v0c0 2.3 0.55 3.45 1.65 3.45v0c0.067 0 0.177-0.01 0.33-0.03 0.147-0.013 0.353-0.02 0.62-0.02v0c0.3-0.033 0.683-0.05 1.15-0.05v0c1.8 0 2.7 0.5 2.7 1.5v0c0 0.333-0.15 0.617-0.45 0.85-0.3 0.233-0.667 0.383-1.1 0.45zM70.35 0.95c-0.867 0-1.667-0.273-2.4-0.82-0.733-0.553-1.333-1.297-1.8-2.23v0c-0.967-2.033-1.567-4.25-1.8-6.65v0c-0.3-2.267-0.45-4.45-0.45-6.55v0c0-0.4 0.017-0.733 0.05-1v0-0.9c0-0.167-0.017-0.25-0.05-0.25v0-0.9l0.05-3.5c0.033-1.067 0.167-2.767 0.4-5.1v0c0.167-1.6 0.55-3.15 1.15-4.65v0c0.233-0.667 0.533-1.177 0.9-1.53 0.367-0.347 0.783-0.52 1.25-0.52v0c1.333 0 2.533 0.24 3.6 0.72 1.067 0.487 1.967 1.163 2.7 2.03v0c0.667 0.833 1.233 1.857 1.7 3.07 0.467 1.22 0.8 2.513 1 3.88v0c0.2 1.4 0.3 2.883 0.3 4.45v0 0.4c0 1.033 0.017 1.967 0.05 2.8v0l0.05 2.85c0 9.6-2.233 14.4-6.7 14.4zM70.15-1.15c0.6 0 1.15-0.243 1.65-0.73 0.5-0.48 0.883-1.137 1.15-1.97v0c0.633-1.7 1.017-3.533 1.15-5.5v0c0.167-1.7 0.25-3.167 0.25-4.4v0c0-1.5-0.117-3.467-0.35-5.9v0c-0.2-2.567-0.3-4.483-0.3-5.75v0-0.9c-0.067-1.267-0.49-2.367-1.27-3.3-0.787-0.933-1.747-1.4-2.88-1.4v0c-1.133 0-1.883 0.65-2.25 1.95v0c-0.333 1.033-0.5 2.367-0.5 4v0c0 0.633 0.017 1.167 0.05 1.6v0 1.35l-0.1 2.3c-0.067 0.7-0.1 1.467-0.1 2.3v0c0 1.8 0.05 3.583 0.15 5.35v0c0.133 2.5 0.467 4.933 1 7.3v0c0.533 2.467 1.317 3.7 2.35 3.7zM87.3 0.6l-0.95-0.75c0-3.833-0.357-7.8-1.07-11.9-0.72-4.1-1.847-9.117-3.38-15.05v0c-0.067-0.333-0.217-0.85-0.45-1.55v0c-0.6-1.867-0.9-3.05-0.9-3.55v0c0-0.3 0.123-0.567 0.37-0.8 0.253-0.233 0.53-0.35 0.83-0.35v0c0.5 0 0.967 0.417 1.4 1.25v0c0.433 0.8 0.833 1.873 1.2 3.22 0.367 1.353 0.767 3.03 1.2 5.03v0c0.4 1.9 0.883 4.817 1.45 8.75v0l0.3 1.95 0.6 4.45c0.133 1.233 0.25 2.117 0.35 2.65v0c0.7-3.667 1.6-8.967 2.7-15.9v0c0.9-5.933 1.533-9.983 1.9-12.15v0h1.1c0.3 0 0.567 0.11 0.8 0.33 0.233 0.213 0.35 0.47 0.35 0.77v0c0 1.2-0.14 2.49-0.42 3.87-0.287 1.387-0.713 3.047-1.28 4.98v0c-0.467 1.667-0.773 2.917-0.92 3.75-0.153 0.833-0.297 2.15-0.43 3.95v0c-0.267 4.033-0.683 7.65-1.25 10.85v0c-0.367 1.933-0.85 3.45-1.45 4.55-0.6 1.1-1.283 1.65-2.05 1.65zM102.4 0.65c-0.433 0-0.823-0.15-1.17-0.45-0.353-0.3-0.547-0.667-0.58-1.1v0-1.3-1c-0.033-0.3-0.05-0.65-0.05-1.05v0c0-0.7-0.05-1.767-0.15-3.2v0l-0.1-3.2c0-1.633 0.05-4.067 0.15-7.3v0c0.133-2.9 0.2-5.333 0.2-7.3v0c0-0.467-0.05-1.167-0.15-2.1v0c-0.1-0.967-0.15-1.667-0.15-2.1v0c0-2.367 0.7-3.55 2.1-3.55v0c1.1 0 2.377 0.217 3.83 0.65 1.447 0.433 2.17 0.95 2.17 1.55v0c0 0.333-0.14 0.64-0.42 0.92-0.287 0.287-0.63 0.513-1.03 0.68v0c-1.4-0.5-2.667-0.833-3.8-1v0c0.033 0.5 0.05 1.217 0.05 2.15v0c0 1.333-0.017 2.533-0.05 3.6v0c-0.1 1.6-0.15 2.8-0.15 3.6v0l0.15 0.8 0.8-0.05c0.267-0.033 0.6-0.05 1-0.05v0c1.6 0 2.4 0.467 2.4 1.4v0c0 0.367-0.15 0.677-0.45 0.93-0.3 0.247-0.683 0.37-1.15 0.37v0c-0.6 0-1.067-0.033-1.4-0.1v0h-1.25c0.067 0.867 0.1 2.133 0.1 3.8v0c0 1.667-0.017 3.167-0.05 4.5v0c-0.1 2.033-0.15 3.55-0.15 4.55v0c0 1.867 0.033 2.8 0.1 2.8v0l1.65-0.05c0.567-0.033 1.25-0.05 2.05-0.05v0c1.267 0 1.9 0.4 1.9 1.2v0c0 0.467-0.207 0.827-0.62 1.08-0.42 0.247-0.93 0.37-1.53 0.37v0zM125.95-0.05c-2.9 0-4.35-0.5-4.35-1.5v0c0-0.8 0.517-1.2 1.55-1.2v0h0.55l0.5 0.05c0.267 0 0.45-0.083 0.55-0.25 0.1-0.167 0.15-0.467 0.15-0.9v0c0-0.567-0.033-1.45-0.1-2.65v0c-0.1-0.8-0.217-2.233-0.35-4.3v0c-0.3-5.1-0.45-8.95-0.45-11.55v0c0-0.933 0.017-1.783 0.05-2.55v0l0.05-2.55c0-1.1-0.05-2.017-0.15-2.75v0c-0.533 0.133-0.917 0.2-1.15 0.2v0c-0.8 0-1.2-0.4-1.2-1.2v0c0-0.4 0.25-0.75 0.75-1.05 0.5-0.3 1.133-0.517 1.9-0.65v0c1.333-0.267 2.517-0.4 3.55-0.4v0c0.4 0 0.743 0.14 1.03 0.42 0.28 0.287 0.42 0.613 0.42 0.98v0c0 0.367-0.107 0.683-0.32 0.95-0.22 0.267-0.497 0.4-0.83 0.4v0c-0.2 0-0.367-0.017-0.5-0.05v0h-0.4c-0.333 0-0.573 0.073-0.72 0.22-0.153 0.153-0.23 0.43-0.23 0.83v0c0 3.233 0.2 8.1 0.6 14.6v0c0.067 1.2 0.2 2.967 0.4 5.3v0c0.167 1.533 0.25 3.1 0.25 4.7v0 1.9c0.2-0.033 0.533-0.05 1-0.05v0c1.4 0 2.1 0.583 2.1 1.75v0 0.3l-1.25 0.85c-0.033 0-0.14 0.007-0.32 0.02-0.187 0.02-0.53 0.03-1.03 0.03v0c-1.067 0.067-1.75 0.1-2.05 0.1zM138.45-0.15l-0.9-0.65-0.05-1.95c-0.033-0.567-0.05-1.2-0.05-1.9v0l0.05-1.7c-0.1-0.367-0.35-4.017-0.75-10.95-0.4-6.933-0.633-11.383-0.7-13.35v0c-1.933-0.067-3.167-0.267-3.7-0.6v0c-0.367-0.267-0.55-0.567-0.55-0.9v0c0-0.267 0.177-0.51 0.53-0.73 0.347-0.213 0.703-0.32 1.07-0.32v0c0.933 0 2.067 0.067 3.4 0.2v0c1.267 0.167 2.4 0.25 3.4 0.25v0h0.4 0.4c1.033 0 1.55 0.4 1.55 1.2v0c0 0.4-0.167 0.723-0.5 0.97-0.333 0.253-0.717 0.38-1.15 0.38v0c-0.3 0-0.733-0.05-1.3-0.15v0l-1-0.2-0.05 0.25-0.05 0.25c0 2.967 0.283 7.7 0.85 14.2v0c0.533 6.1 0.8 10.833 0.8 14.2v0c0 0.4-0.173 0.75-0.52 1.05-0.353 0.3-0.747 0.45-1.18 0.45zM160.35 1.05c-0.667 0-1.25-1-1.75-3v0c-0.433-1.767-0.79-3.96-1.07-6.58-0.287-2.613-0.58-5.92-0.88-9.92v0c-0.167-2.6-0.4-5.383-0.7-8.35v0c-0.233-2.467-0.517-4.05-0.85-4.75v0c0.3-0.6 0.783-0.9 1.45-0.9v0c1.067 0 1.6 1.1 1.6 3.3v0c0 2.6 0.35 6.4 1.05 11.4v0c0.7 4.967 1.1 8.583 1.2 10.85v0l0.25-1.7c0.333-2.233 0.627-4.343 0.88-6.33 0.247-1.98 0.453-4.12 0.62-6.42v0c0.233-2.567 0.35-5.1 0.35-7.6v0l1.35-0.6c0.433 0 0.793 0.107 1.08 0.32 0.28 0.22 0.42 0.53 0.42 0.93v0 0.4c0.533 1.867 0.977 3.907 1.33 6.12 0.347 2.22 0.653 4.83 0.92 7.83v0c0.2 2.3 0.433 4.45 0.7 6.45v0c0.633-4.467 0.95-9.967 0.95-16.5v0c0-1.033 0.133-2.3 0.4-3.8v0c0.233-1.533 0.35-2.783 0.35-3.75v0c-0.1-0.3-0.15-0.583-0.15-0.85v0c0-0.8 0.5-1.2 1.5-1.2v0c0.4 0 0.717 0.1 0.95 0.3 0.233 0.2 0.35 0.483 0.35 0.85v0 0.75c0 0.5-0.05 0.933-0.15 1.3v0 0.25c-0.433 1.333-0.65 2.867-0.65 4.6v0 3.65c0 2.1-0.25 5.233-0.75 9.4v0c-0.533 4.067-0.8 7.1-0.8 9.1v0 0.9c0 0.767-0.083 1.417-0.25 1.95v0c-0.2 0.667-0.683 1-1.45 1v0c-0.533 0-0.94-0.177-1.22-0.53-0.287-0.347-0.43-0.787-0.43-1.32v0c0-2.7-0.283-6.2-0.85-10.5v0c-0.3-1.933-0.617-3.883-0.95-5.85v0l-0.8-5.25c-0.133 0.967-0.2 1.917-0.2 2.85v0c0 1.867-0.133 4.333-0.4 7.4-0.267 3.067-0.683 6.05-1.25 8.95v0c-0.633 3.233-1.35 4.85-2.15 4.85zM186.95 0c-1.133 0-1.7-2.75-1.7-8.25v0l0.05-2.85 0.05-2.3v-0.15-0.5c0.033-0.267 0.05-0.583 0.05-0.95v0c0-0.067-0.05-0.15-0.15-0.25v0c-0.1-0.1-0.15-0.183-0.15-0.25v0-0.05c-0.167 0.067-0.467 0.1-0.9 0.1v0c-0.433 0-0.967-0.067-1.6-0.2v0c-0.2-0.033-0.733-0.117-1.6-0.25v0 5.75c0 0.867 0.05 2.233 0.15 4.1v0c0.1 1.833 0.15 3.2 0.15 4.1v0c0 0.5-0.133 0.933-0.4 1.3-0.267 0.367-0.617 0.55-1.05 0.55v0c-0.633 0-1.083-0.617-1.35-1.85v0c-0.267-1.267-0.4-2.917-0.4-4.95v0l0.1-4.05c0.033-1.133 0.05-2.333 0.05-3.6v0-0.85-0.7c0-0.533-0.017-0.883-0.05-1.05v0-0.25l0.15-2.9c0-1.267-0.05-3.15-0.15-5.65v0c-0.1-2.5-0.15-4.383-0.15-5.65v0c0-0.4 0.133-0.75 0.4-1.05 0.267-0.3 0.6-0.45 1-0.45v0c1.067 0 1.6 1 1.6 3v0l-0.1 6.2c-0.067 1.867-0.1 3.95-0.1 6.25v0c0.5 0.167 1.4 0.25 2.7 0.25v0h1.85c0.067-0.2 0.1-0.4 0.1-0.6v0c0-1.6-0.1-3.967-0.3-7.1v0c-0.233-2.933-0.35-5.317-0.35-7.15v0c0-0.367 0.143-0.677 0.43-0.93 0.28-0.247 0.62-0.37 1.02-0.37v0c0.233 0 0.567 0.083 1 0.25v0l0.45 0.2c0 4.733 0.167 11.05 0.5 18.95v0l0.45 12.65c0 0.467-0.173 0.833-0.52 1.1-0.353 0.267-0.763 0.4-1.23 0.4zM197 0.65c-0.433 0-0.823-0.15-1.17-0.45-0.353-0.3-0.547-0.667-0.58-1.1v0-1.3-1c-0.033-0.3-0.05-0.65-0.05-1.05v0c0-0.7-0.05-1.767-0.15-3.2v0l-0.1-3.2c0-1.633 0.05-4.067 0.15-7.3v0c0.133-2.9 0.2-5.333 0.2-7.3v0c0-0.467-0.05-1.167-0.15-2.1v0c-0.1-0.967-0.15-1.667-0.15-2.1v0c0-2.367 0.7-3.55 2.1-3.55v0c1.1 0 2.377 0.217 3.83 0.65 1.447 0.433 2.17 0.95 2.17 1.55v0c0 0.333-0.14 0.64-0.42 0.92-0.287 0.287-0.63 0.513-1.03 0.68v0c-1.4-0.5-2.667-0.833-3.8-1v0c0.033 0.5 0.05 1.217 0.05 2.15v0c0 1.333-0.017 2.533-0.05 3.6v0c-0.1 1.6-0.15 2.8-0.15 3.6v0l0.15 0.8 0.8-0.05c0.267-0.033 0.6-0.05 1-0.05v0c1.6 0 2.4 0.467 2.4 1.4v0c0 0.367-0.15 0.677-0.45 0.93-0.3 0.247-0.683 0.37-1.15 0.37v0c-0.6 0-1.067-0.033-1.4-0.1v0h-1.25c0.067 0.867 0.1 2.133 0.1 3.8v0c0 1.667-0.017 3.167-0.05 4.5v0c-0.1 2.033-0.15 3.55-0.15 4.55v0c0 1.867 0.033 2.8 0.1 2.8v0l1.65-0.05c0.567-0.033 1.25-0.05 2.05-0.05v0c1.267 0 1.9 0.4 1.9 1.2v0c0 0.467-0.207 0.827-0.62 1.08-0.42 0.247-0.93 0.37-1.53 0.37v0zM222.55 0.15c-0.4 0-0.7-0.11-0.9-0.33-0.2-0.213-0.35-0.587-0.45-1.12v0l-0.3-0.95v-0.1-0.15c0-1.1-1.14-4.85-3.42-11.25-2.287-6.4-4.08-11.133-5.38-14.2v0 25.15l0.2 0.35c0.033 0.067 0.1 0.183 0.2 0.35 0.1 0.167 0.15 0.333 0.15 0.5v0c0 0.433-0.15 0.8-0.45 1.1-0.3 0.3-0.667 0.45-1.1 0.45v0c-1.067 0-1.6-1.017-1.6-3.05v0l-0.05-8.55c-0.033-2.567-0.05-5.433-0.05-8.6v0c0-1.067 0.05-2.617 0.15-4.65v0c0.1-2.1 0.15-3.65 0.15-4.65v0c0-1.567 0.6-2.8 1.8-3.7v0 0.3c0.2-0.067 0.333-0.1 0.4-0.1v0c0.767 0 1.733 1.333 2.9 4v0c0.933 2.133 1.777 4.383 2.53 6.75 0.747 2.367 1.737 5.733 2.97 10.1v0l0.5 1.8c0.767 2.7 1.35 4.633 1.75 5.8v0c0.667-7.167 1-15.633 1-25.4v0-0.65c-0.033-0.2-0.05-0.417-0.05-0.65v0c0-1 0.4-1.5 1.2-1.5v0c0.467 0 0.827 0.183 1.08 0.55 0.247 0.367 0.37 0.833 0.37 1.4v0 3.75c-0.067 5.133-0.267 10.7-0.6 16.7-0.333 6-0.733 9.383-1.2 10.15v0c-0.967 0.267-1.567 0.4-1.8 0.4zM243.6 0.3c-0.867 0-1.3-2.183-1.3-6.55v0l0.1-7.9c0.033-2.333 0.05-4.95 0.05-7.85v0c0-1.067-0.1-2.717-0.3-4.95v0c-0.167-2.433-0.25-3.917-0.25-4.45v0c0-0.433 0.183-0.817 0.55-1.15 0.367-0.333 0.767-0.5 1.2-0.5v0c1.167 0 2.293 0.26 3.38 0.78 1.08 0.513 2.037 1.237 2.87 2.17v0c1.767 2.033 2.933 4.267 3.5 6.7v0c0.3 1.233 0.45 2.45 0.45 3.65v0c0 0.433-0.017 0.833-0.05 1.2v0l-0.05 1.35v2.75c0 2.133-0.067 3.817-0.2 5.05v0c-0.2 1.667-0.583 3.15-1.15 4.45v0c-0.667 1.4-1.633 2.65-2.9 3.75v0c-0.6 0.5-1.367 1-2.3 1.5v0zM245.8-2.25c0.667 0 1.283-0.177 1.85-0.53 0.567-0.347 1.05-0.82 1.45-1.42v0c0.333-0.533 0.643-1.21 0.93-2.03 0.28-0.813 0.487-1.603 0.62-2.37v0c0.3-1.5 0.483-3.033 0.55-4.6v0c0.033-0.4 0.05-0.983 0.05-1.75v0c0-10.067-1.95-15.317-5.85-15.75v0c-0.233 1.5-0.35 3.233-0.35 5.2v0c0 2.1 0.133 5.767 0.4 11v0c0.233 4.633 0.35 8.317 0.35 11.05v0zM261.8-0.05c-2.9 0-4.35-0.5-4.35-1.5v0c0-0.8 0.517-1.2 1.55-1.2v0h0.55l0.5 0.05c0.267 0 0.45-0.083 0.55-0.25 0.1-0.167 0.15-0.467 0.15-0.9v0c0-0.567-0.033-1.45-0.1-2.65v0c-0.1-0.8-0.217-2.233-0.35-4.3v0c-0.3-5.1-0.45-8.95-0.45-11.55v0c0-0.933 0.017-1.783 0.05-2.55v0l0.05-2.55c0-1.1-0.05-2.017-0.15-2.75v0c-0.533 0.133-0.917 0.2-1.15 0.2v0c-0.8 0-1.2-0.4-1.2-1.2v0c0-0.4 0.25-0.75 0.75-1.05 0.5-0.3 1.133-0.517 1.9-0.65v0c1.333-0.267 2.517-0.4 3.55-0.4v0c0.4 0 0.743 0.14 1.03 0.42 0.28 0.287 0.42 0.613 0.42 0.98v0c0 0.367-0.11 0.683-0.33 0.95-0.213 0.267-0.487 0.4-0.82 0.4v0c-0.2 0-0.367-0.017-0.5-0.05v0h-0.4c-0.333 0-0.577 0.073-0.73 0.22-0.147 0.153-0.22 0.43-0.22 0.83v0c0 3.233 0.2 8.1 0.6 14.6v0c0.067 1.2 0.2 2.967 0.4 5.3v0c0.167 1.533 0.25 3.1 0.25 4.7v0 1.9c0.2-0.033 0.533-0.05 1-0.05v0c1.4 0 2.1 0.583 2.1 1.75v0 0.3l-1.25 0.85c-0.033 0-0.14 0.007-0.32 0.02-0.187 0.02-0.53 0.03-1.03 0.03v0c-1.067 0.067-1.75 0.1-2.05 0.1zM280.45 0.45c-0.767 0-1.333-0.117-1.7-0.35-0.367-0.233-0.55-0.667-0.55-1.3v0c0-1-0.167-2.7-0.5-5.1v0l-0.2-1.05-4.95-0.75c-0.2 0.767-0.483 2.317-0.85 4.65v0c-0.2 1.633-0.517 2.717-0.95 3.25v0c-0.233 0.3-0.567 0.45-1 0.45v0c-0.4 0-0.767-0.127-1.1-0.38-0.333-0.247-0.5-0.553-0.5-0.92v0l0.1-0.25 0.05-0.2c2.2-8.567 3.867-17.017 5-25.35v0c0-0.133 0.017-0.36 0.05-0.68 0.033-0.313 0.067-0.77 0.1-1.37v0c0.1-1.233 0.21-2.217 0.33-2.95 0.113-0.733 0.303-1.283 0.57-1.65v0h1.7c0.467 0 0.867 0.107 1.2 0.32 0.333 0.22 0.5 0.53 0.5 0.93v0c0 2.533 0.35 6.3 1.05 11.3v0c0.667 5.133 1 8.733 1 10.8v0c0 0.2 0.083 0.717 0.25 1.55v0c0.167 0.767 0.25 1.267 0.25 1.5v0c0 0.233 0.167 1.233 0.5 3v0c0.3 1.6 0.45 2.633 0.45 3.1v0 0.05c0 0.733-0.267 1.2-0.8 1.4zM277.15-9.15c-0.1-0.5-0.15-1.117-0.15-1.85v0c0-3-0.267-6.833-0.8-11.5v0l-0.5-5.2c-1.433 7.833-2.417 13.75-2.95 17.75v0c0.5 0.333 1.967 0.6 4.4 0.8zM292.05 0.4c-0.933 0-1.783-0.177-2.55-0.53-0.767-0.347-1.417-0.803-1.95-1.37v0c-0.433-0.467-0.833-1.15-1.2-2.05-0.367-0.9-0.633-1.767-0.8-2.6v0c-0.167-0.633-0.3-1.55-0.4-2.75-0.1-1.2-0.167-2.233-0.2-3.1v0-2.9-2c0-1.933 0.033-3.517 0.1-4.75v0c0.067-1.5 0.283-3.083 0.65-4.75v0c0.3-1.5 0.817-2.817 1.55-3.95v0c0.7-1.133 1.683-1.917 2.95-2.35v0c0.6-0.233 1.3-0.35 2.1-0.35v0c1.433 0 2.15 0.417 2.15 1.25v0c0 0.4-0.157 0.723-0.47 0.97-0.32 0.253-0.697 0.38-1.13 0.38v0c-0.2 0-0.383-0.017-0.55-0.05v0c-0.133-0.033-0.3-0.05-0.5-0.05v0c-0.567 0-1.067 0.3-1.5 0.9-0.433 0.6-0.8 1.433-1.1 2.5v0c-0.533 2.067-0.9 4.317-1.1 6.75v0c-0.133 2.267-0.2 3.95-0.2 5.05v0c0 1.133 0.05 2.683 0.15 4.65v0c0.133 1.833 0.417 3.433 0.85 4.8v0c0.233 0.8 0.51 1.44 0.83 1.92 0.313 0.487 0.72 0.897 1.22 1.23v0c0.567 0.367 1.15 0.55 1.75 0.55v0c1.6 0 2.4-2.667 2.4-8v0-2.3c-0.233-0.1-0.617-0.15-1.15-0.15v0h-0.45-0.55c-1.167 0-1.75-0.383-1.75-1.15v0c0-0.467 0.16-0.827 0.48-1.08 0.313-0.247 0.72-0.37 1.22-0.37v0 0.05h0.7c3 0 4.5 0.517 4.5 1.55v0c0 0.3-0.083 0.9-0.25 1.8v0c-0.2 0.8-0.3 1.4-0.3 1.8v0c0 0.567 0.05 1.45 0.15 2.65v0l0.1 2.65c0 1.6-0.557 2.857-1.67 3.77-1.12 0.92-2.48 1.38-4.08 1.38zM311.6 0.85c-0.733 0-1.4-0.8-2-2.4v0c-0.7-1.733-1.217-3.517-1.55-5.35v0l-0.35-1.7c-0.967-4.767-1.583-7.483-1.85-8.15v0h-0.6c0 0.967-0.017 1.85-0.05 2.65v0 2.75c0 4.467 0.317 7.95 0.95 10.45v0l-0.55 1.35h-1.4l-0.65-0.75 0.05-3.35c0-3-0.15-7.55-0.45-13.65v0c-0.267-6.5-0.4-11.05-0.4-13.65v0c0-1.6 0.55-2.4 1.65-2.4v0c1.8 0 3.273 0.467 4.42 1.4 1.153 0.933 1.73 2.233 1.73 3.9v0 3.5c0 0.5-0.083 1.073-0.25 1.72-0.167 0.653-0.35 1.18-0.55 1.58v0l-0.95 1.8-0.8 1.5 0.25 1.2 0.7 3.55c0.467 2.567 0.917 4.65 1.35 6.25 0.433 1.6 0.967 3.05 1.6 4.35v0l0.3 0.6c0.333 0.667 0.5 1.2 0.5 1.6v0c0 0.333-0.1 0.627-0.3 0.88-0.2 0.247-0.467 0.37-0.8 0.37zM305.45-19.2c0.733-0.367 1.357-1.377 1.87-3.03 0.52-1.647 0.78-3.17 0.78-4.57v0c0-1.067-0.133-2.067-0.4-3v0c-0.167-0.533-0.44-0.943-0.82-1.23-0.387-0.28-0.863-0.42-1.43-0.42v0l-0.1 0.25-0.1 0.45 0.1 5.9c0.067 1.733 0.1 3.617 0.1 5.65zM327.45 0.45c-0.767 0-1.333-0.117-1.7-0.35-0.367-0.233-0.55-0.667-0.55-1.3v0c0-1-0.167-2.7-0.5-5.1v0l-0.2-1.05-4.95-0.75c-0.2 0.767-0.483 2.317-0.85 4.65v0c-0.2 1.633-0.517 2.717-0.95 3.25v0c-0.233 0.3-0.567 0.45-1 0.45v0c-0.4 0-0.767-0.127-1.1-0.38-0.333-0.247-0.5-0.553-0.5-0.92v0l0.1-0.25 0.05-0.2c2.2-8.567 3.867-17.017 5-25.35v0c0-0.133 0.017-0.36 0.05-0.68 0.033-0.313 0.067-0.77 0.1-1.37v0c0.1-1.233 0.21-2.217 0.33-2.95 0.113-0.733 0.303-1.283 0.57-1.65v0h1.7c0.467 0 0.867 0.107 1.2 0.32 0.333 0.22 0.5 0.53 0.5 0.93v0c0 2.533 0.35 6.3 1.05 11.3v0c0.667 5.133 1 8.733 1 10.8v0c0 0.2 0.083 0.717 0.25 1.55v0c0.167 0.767 0.25 1.267 0.25 1.5v0c0 0.233 0.167 1.233 0.5 3v0c0.3 1.6 0.45 2.633 0.45 3.1v0 0.05c0 0.733-0.267 1.2-0.8 1.4zM324.15-9.15c-0.1-0.5-0.15-1.117-0.15-1.85v0c0-3-0.267-6.833-0.8-11.5v0l-0.5-5.2c-1.433 7.833-2.417 13.75-2.95 17.75v0c0.5 0.333 1.967 0.6 4.4 0.8zM352.7 2.6c-1.033 0-1.55-1.033-1.55-3.1v0-3.2-3.2c0-1.667-0.117-3.85-0.35-6.55v0c-0.267-3.033-0.4-5.117-0.4-6.25v0l0.1-3.1c0.067-0.9 0.1-1.917 0.1-3.05v0c-0.133 0.433-0.683 2.733-1.65 6.9v0c-0.967 4.033-1.967 7.767-3 11.2v0c-1 3.3-1.817 4.95-2.45 4.95v0c-0.633 0-1.14-0.193-1.52-0.58-0.387-0.38-0.58-0.903-0.58-1.57v0c0-1.467-0.59-4.583-1.77-9.35-1.187-4.767-2.263-8.667-3.23-11.7v0l-0.3 5.65c-0.267 4.767-0.45 8.733-0.55 11.9v0c-0.067 3.067-0.1 5.167-0.1 6.3v0c0 0.267 0.017 0.517 0.05 0.75v0 0.7c0 0.567-0.117 0.993-0.35 1.28-0.233 0.28-0.667 0.42-1.3 0.42v0c-0.333 0-0.65-0.123-0.95-0.37-0.3-0.253-0.45-0.53-0.45-0.83v0c0-3.4 0.25-8.5 0.75-15.3v0c0.5-6.8 0.75-11.9 0.75-15.3v0c-0.2-0.3-0.3-0.617-0.3-0.95v0c0-0.4 0.193-0.71 0.58-0.93 0.38-0.213 0.837-0.32 1.37-0.32v0c0.433 0 1.233 1.567 2.4 4.7 1.167 3.133 2.333 6.683 3.5 10.65 1.167 3.967 1.917 6.833 2.25 8.6v0c0.267-0.9 0.483-1.733 0.65-2.5v0l0.3-1.2c1.067-4.667 2.133-8.883 3.2-12.65v0c0.633-2.3 1.25-4.1 1.85-5.4v0c0.6-1.4 1.15-2.1 1.65-2.1v0c0.467 0 0.893 0.127 1.28 0.38 0.38 0.247 0.57 0.57 0.57 0.97v0c0 2.4 0.1 6 0.3 10.8v0c0.233 4.467 0.35 7.933 0.35 10.4v0l-0.05 2.65-0.1 2.65c0 0.4 0.05 1 0.15 1.8v0l0.15 1.75c0.033 0.3 0.06 0.533 0.08 0.7 0.013 0.167 0.02 0.267 0.02 0.3v0c0.167 0.433 0.25 0.75 0.25 0.95v0c0 0.567-0.167 1.067-0.5 1.5-0.333 0.433-0.733 0.65-1.2 0.65zM361.5 0.7c-0.6-0.1-1.107-0.317-1.52-0.65-0.42-0.333-0.663-0.767-0.73-1.3v0l0.55-0.85c0.2 0 0.517 0.067 0.95 0.2v0c0.5 0.1 0.883 0.15 1.15 0.15v0c0.6 0 1.143-0.267 1.63-0.8 0.48-0.533 0.837-1.233 1.07-2.1v0c0.433-1.6 0.65-3.033 0.65-4.3v0c0-2.2-0.7-4.517-2.1-6.95v0l-0.55-0.95c-0.633-1.1-1.167-2.083-1.6-2.95-0.433-0.867-0.8-1.8-1.1-2.8v0c-0.4-1.3-0.6-2.6-0.6-3.9v0c0-1.467 0.333-3 1-4.6v0c0.333-0.767 0.81-1.393 1.43-1.88 0.613-0.48 1.303-0.72 2.07-0.72v0c0.6 0 1.16 0.19 1.68 0.57 0.513 0.387 0.77 0.847 0.77 1.38v0c0 0.3-0.117 0.533-0.35 0.7-0.233 0.167-0.517 0.25-0.85 0.25v0c-0.367 0-0.717-0.1-1.05-0.3v0c-0.733 0.033-1.317 0.683-1.75 1.95v0c-0.367 1.167-0.55 2.133-0.55 2.9v0c0 0.967 0.15 1.94 0.45 2.92 0.3 0.987 0.683 1.88 1.15 2.68v0l1.1 2 1.75 3.3c0.467 0.933 0.843 2.017 1.13 3.25 0.28 1.233 0.42 2.483 0.42 3.75v0c0 2.033-0.467 3.967-1.4 5.8v0c-0.467 0.933-1.127 1.683-1.98 2.25-0.847 0.567-1.787 0.85-2.82 0.85v0zM388.8 0.7c-0.733 0-1.507-0.107-2.32-0.32-0.82-0.22-1.447-0.463-1.88-0.73v0c-2.233-1.433-3.35-5.35-3.35-11.75v0-1.35-1.55-1.2c0-1.333 0.017-2.527 0.05-3.58 0.033-1.047 0.1-2.187 0.2-3.42v0c0.1-1.3 0.25-2.36 0.45-3.18 0.2-0.813 0.533-1.737 1-2.77v0c0.4-0.967 0.893-1.717 1.48-2.25 0.58-0.533 1.337-0.983 2.27-1.35v0c0.833-0.367 1.867-0.55 3.1-0.55v0c0.5 0 0.883 0.117 1.15 0.35 0.267 0.233 0.4 0.533 0.4 0.9v0c0 0.333-0.107 0.633-0.32 0.9-0.22 0.267-0.48 0.417-0.78 0.45v0h-2.35c-0.667 0-1.25 0.417-1.75 1.25-0.5 0.833-0.85 1.917-1.05 3.25v0c-0.433 2.467-0.65 4.467-0.65 6v0 0.25l-0.1 4.8c-0.067 1.433-0.1 3.05-0.1 4.85v0c0 1.267 0.05 2.3 0.15 3.1v0c0.167 1.2 0.45 2.2 0.85 3v0c0.4 0.9 1.083 1.55 2.05 1.95v0c0.5 0.2 1.05 0.3 1.65 0.3v0c0.367 0 0.733-0.133 1.1-0.4v0c0.433 0 0.793 0.09 1.08 0.27 0.28 0.187 0.42 0.463 0.42 0.83v0c0 1.3-0.917 1.95-2.75 1.95zM401.9 0.95c-0.867 0-1.667-0.273-2.4-0.82-0.733-0.553-1.333-1.297-1.8-2.23v0c-0.967-2.033-1.567-4.25-1.8-6.65v0c-0.3-2.267-0.45-4.45-0.45-6.55v0c0-0.4 0.017-0.733 0.05-1v0-0.9c0-0.167-0.017-0.25-0.05-0.25v0-0.9l0.05-3.5c0.033-1.067 0.167-2.767 0.4-5.1v0c0.167-1.6 0.55-3.15 1.15-4.65v0c0.233-0.667 0.533-1.177 0.9-1.53 0.367-0.347 0.783-0.52 1.25-0.52v0c1.333 0 2.533 0.24 3.6 0.72 1.067 0.487 1.967 1.163 2.7 2.03v0c0.667 0.833 1.233 1.857 1.7 3.07 0.467 1.22 0.8 2.513 1 3.88v0c0.2 1.4 0.3 2.883 0.3 4.45v0 0.4c0 1.033 0.017 1.967 0.05 2.8v0l0.05 2.85c0 9.6-2.233 14.4-6.7 14.4zM401.7-1.15c0.6 0 1.15-0.243 1.65-0.73 0.5-0.48 0.883-1.137 1.15-1.97v0c0.633-1.7 1.017-3.533 1.15-5.5v0c0.167-1.7 0.25-3.167 0.25-4.4v0c0-1.5-0.117-3.467-0.35-5.9v0c-0.2-2.567-0.3-4.483-0.3-5.75v0-0.9c-0.067-1.267-0.49-2.367-1.27-3.3-0.787-0.933-1.747-1.4-2.88-1.4v0c-1.133 0-1.883 0.65-2.25 1.95v0c-0.333 1.033-0.5 2.367-0.5 4v0c0 0.633 0.017 1.167 0.05 1.6v0 1.35l-0.1 2.3c-0.067 0.7-0.1 1.467-0.1 2.3v0c0 1.8 0.05 3.583 0.15 5.35v0c0.133 2.5 0.467 4.933 1 7.3v0c0.533 2.467 1.317 3.7 2.35 3.7zM434.2 2.6c-1.033 0-1.55-1.033-1.55-3.1v0-3.2-3.2c0-1.667-0.117-3.85-0.35-6.55v0c-0.267-3.033-0.4-5.117-0.4-6.25v0l0.1-3.1c0.067-0.9 0.1-1.917 0.1-3.05v0c-0.133 0.433-0.683 2.733-1.65 6.9v0c-0.967 4.033-1.967 7.767-3 11.2v0c-1 3.3-1.817 4.95-2.45 4.95v0c-0.633 0-1.14-0.193-1.52-0.58-0.387-0.38-0.58-0.903-0.58-1.57v0c0-1.467-0.59-4.583-1.77-9.35-1.187-4.767-2.263-8.667-3.23-11.7v0l-0.3 5.65c-0.267 4.767-0.45 8.733-0.55 11.9v0c-0.067 3.067-0.1 5.167-0.1 6.3v0c0 0.267 0.017 0.517 0.05 0.75v0 0.7c0 0.567-0.117 0.993-0.35 1.28-0.233 0.28-0.667 0.42-1.3 0.42v0c-0.333 0-0.65-0.123-0.95-0.37-0.3-0.253-0.45-0.53-0.45-0.83v0c0-3.4 0.25-8.5 0.75-15.3v0c0.5-6.8 0.75-11.9 0.75-15.3v0c-0.2-0.3-0.3-0.617-0.3-0.95v0c0-0.4 0.193-0.71 0.58-0.93 0.38-0.213 0.837-0.32 1.37-0.32v0c0.433 0 1.233 1.567 2.4 4.7 1.167 3.133 2.333 6.683 3.5 10.65 1.167 3.967 1.917 6.833 2.25 8.6v0c0.267-0.9 0.483-1.733 0.65-2.5v0l0.3-1.2c1.067-4.667 2.133-8.883 3.2-12.65v0c0.633-2.3 1.25-4.1 1.85-5.4v0c0.6-1.4 1.15-2.1 1.65-2.1v0c0.467 0 0.893 0.127 1.28 0.38 0.38 0.247 0.57 0.57 0.57 0.97v0c0 2.4 0.1 6 0.3 10.8v0c0.233 4.467 0.35 7.933 0.35 10.4v0l-0.05 2.65-0.1 2.65c0 0.4 0.05 1 0.15 1.8v0l0.15 1.75c0.033 0.3 0.06 0.533 0.08 0.7 0.013 0.167 0.02 0.267 0.02 0.3v0c0.167 0.433 0.25 0.75 0.25 0.95v0c0 0.567-0.167 1.067-0.5 1.5-0.333 0.433-0.733 0.65-1.2 0.65zM462.25 2.6c-1.033 0-1.55-1.033-1.55-3.1v0-3.2-3.2c0-1.667-0.117-3.85-0.35-6.55v0c-0.267-3.033-0.4-5.117-0.4-6.25v0l0.1-3.1c0.067-0.9 0.1-1.917 0.1-3.05v0c-0.133 0.433-0.683 2.733-1.65 6.9v0c-0.967 4.033-1.967 7.767-3 11.2v0c-1 3.3-1.817 4.95-2.45 4.95v0c-0.633 0-1.14-0.193-1.52-0.58-0.387-0.38-0.58-0.903-0.58-1.57v0c0-1.467-0.59-4.583-1.77-9.35-1.187-4.767-2.263-8.667-3.23-11.7v0l-0.3 5.65c-0.267 4.767-0.45 8.733-0.55 11.9v0c-0.067 3.067-0.1 5.167-0.1 6.3v0c0 0.267 0.017 0.517 0.05 0.75v0 0.7c0 0.567-0.117 0.993-0.35 1.28-0.233 0.28-0.667 0.42-1.3 0.42v0c-0.333 0-0.65-0.123-0.95-0.37-0.3-0.253-0.45-0.53-0.45-0.83v0c0-3.4 0.25-8.5 0.75-15.3v0c0.5-6.8 0.75-11.9 0.75-15.3v0c-0.2-0.3-0.3-0.617-0.3-0.95v0c0-0.4 0.193-0.71 0.58-0.93 0.38-0.213 0.837-0.32 1.37-0.32v0c0.433 0 1.233 1.567 2.4 4.7 1.167 3.133 2.333 6.683 3.5 10.65 1.167 3.967 1.917 6.833 2.25 8.6v0c0.267-0.9 0.483-1.733 0.65-2.5v0l0.3-1.2c1.067-4.667 2.133-8.883 3.2-12.65v0c0.633-2.3 1.25-4.1 1.85-5.4v0c0.6-1.4 1.15-2.1 1.65-2.1v0c0.467 0 0.893 0.127 1.28 0.38 0.38 0.247 0.57 0.57 0.57 0.97v0c0 2.4 0.1 6 0.3 10.8v0c0.233 4.467 0.35 7.933 0.35 10.4v0l-0.05 2.65-0.1 2.65c0 0.4 0.05 1 0.15 1.8v0l0.15 1.75c0.033 0.3 0.06 0.533 0.08 0.7 0.013 0.167 0.02 0.267 0.02 0.3v0c0.167 0.433 0.25 0.75 0.25 0.95v0c0 0.567-0.167 1.067-0.5 1.5-0.333 0.433-0.733 0.65-1.2 0.65zM475.5 0.75c-0.8 0-1.517-0.173-2.15-0.52-0.633-0.353-1.15-0.863-1.55-1.53v0c-0.8-1.4-1.317-2.983-1.55-4.75v0c-0.233-1.533-0.35-3.367-0.35-5.5v0c-0.1-3.6-0.15-8-0.15-13.2v0l-0.05-3.85c-0.033-0.2-0.05-0.533-0.05-1v0c-0.067-1.267-0.1-2.033-0.1-2.3v0c0.3-0.7 0.65-1.05 1.05-1.05v0c0.4 0 0.76 0.3 1.08 0.9 0.313 0.6 0.47 1.25 0.47 1.95v0 13.6c0 1.333 0.117 3.1 0.35 5.3v0c0.233 2.733 0.35 4.5 0.35 5.3v0c0 2.467 1.05 3.7 3.15 3.7v0c2.4 0 3.6-8.967 3.6-26.9v0-2.8-0.45c-0.033-0.1-0.05-0.233-0.05-0.4v0c0-0.4 0.093-0.693 0.28-0.88 0.18-0.18 0.537-0.27 1.07-0.27v0c0.433 0 0.777 0.127 1.03 0.38 0.247 0.247 0.403 0.537 0.47 0.87v0c0.033 0.2 0.05 0.583 0.05 1.15v0c0 0.533-0.05 1.383-0.15 2.55v0c-0.133 0.967-0.2 1.8-0.2 2.5v0c0 0.767-0.033 1.45-0.1 2.05v0l-0.1 2.1v0.4c0.033 0.133 0.05 0.283 0.05 0.45v0c0 14.8-2.15 22.2-6.45 22.2zM491.9-0.15l-0.9-0.65-0.05-1.95c-0.033-0.567-0.05-1.2-0.05-1.9v0l0.05-1.7c-0.1-0.367-0.35-4.017-0.75-10.95-0.4-6.933-0.633-11.383-0.7-13.35v0c-1.933-0.067-3.167-0.267-3.7-0.6v0c-0.367-0.267-0.55-0.567-0.55-0.9v0c0-0.267 0.177-0.51 0.53-0.73 0.347-0.213 0.703-0.32 1.07-0.32v0c0.933 0 2.067 0.067 3.4 0.2v0c1.267 0.167 2.4 0.25 3.4 0.25v0h0.4 0.4c1.033 0 1.55 0.4 1.55 1.2v0c0 0.4-0.167 0.723-0.5 0.97-0.333 0.253-0.717 0.38-1.15 0.38v0c-0.3 0-0.733-0.05-1.3-0.15v0l-1-0.2-0.05 0.25-0.05 0.25c0 2.967 0.283 7.7 0.85 14.2v0c0.533 6.1 0.8 10.833 0.8 14.2v0c0 0.4-0.173 0.75-0.52 1.05-0.353 0.3-0.747 0.45-1.18 0.45zM503.3 0.65c-0.433 0-0.823-0.15-1.17-0.45-0.353-0.3-0.547-0.667-0.58-1.1v0-1.3-1c-0.033-0.3-0.05-0.65-0.05-1.05v0c0-0.7-0.05-1.767-0.15-3.2v0l-0.1-3.2c0-1.633 0.05-4.067 0.15-7.3v0c0.133-2.9 0.2-5.333 0.2-7.3v0c0-0.467-0.05-1.167-0.15-2.1v0c-0.1-0.967-0.15-1.667-0.15-2.1v0c0-2.367 0.7-3.55 2.1-3.55v0c1.1 0 2.377 0.217 3.83 0.65 1.447 0.433 2.17 0.95 2.17 1.55v0c0 0.333-0.14 0.64-0.42 0.92-0.287 0.287-0.63 0.513-1.03 0.68v0c-1.4-0.5-2.667-0.833-3.8-1v0c0.033 0.5 0.05 1.217 0.05 2.15v0c0 1.333-0.017 2.533-0.05 3.6v0c-0.1 1.6-0.15 2.8-0.15 3.6v0l0.15 0.8 0.8-0.05c0.267-0.033 0.6-0.05 1-0.05v0c1.6 0 2.4 0.467 2.4 1.4v0c0 0.367-0.15 0.677-0.45 0.93-0.3 0.247-0.683 0.37-1.15 0.37v0c-0.6 0-1.067-0.033-1.4-0.1v0h-1.25c0.067 0.867 0.1 2.133 0.1 3.8v0c0 1.667-0.017 3.167-0.05 4.5v0c-0.1 2.033-0.15 3.55-0.15 4.55v0c0 1.867 0.033 2.8 0.1 2.8v0l1.65-0.05c0.567-0.033 1.25-0.05 2.05-0.05v0c1.267 0 1.9 0.4 1.9 1.2v0c0 0.467-0.207 0.827-0.62 1.08-0.42 0.247-0.93 0.37-1.53 0.37v0zM519 0.8c-0.433 0-0.817-0.183-1.15-0.55-0.333-0.367-0.5-0.783-0.5-1.25v0c0-0.5 0.183-0.95 0.55-1.35 0.367-0.4 0.8-0.6 1.3-0.6v0c0.467 0 0.883 0.2 1.25 0.6 0.367 0.4 0.55 0.833 0.55 1.3v0c0 0.533-0.19 0.977-0.57 1.33-0.387 0.347-0.863 0.52-1.43 0.52z" fill="#000000" fill-rule="nonzero" stroke="none" stroke-width="1" stroke-linecap="butt" stroke-linejoin="miter" stroke-miterlimit="10" stroke-dasharray="" stroke-dashoffset="0" font-family="none" font-weight="none" font-size="none" text-anchor="none" style="mix-blend-mode: normal" data-fill-palette-color="secondary" id="text-1"></path></g></g><g transform="matrix(1,0,0,1,29.33176499999999,50.6197159190354)"><svg viewBox="0 0 316.416 136.9811401619292" height="136.9811401619292" width="316.416"><g><svg viewBox="0 0 316.416 136.9811401619292" height="136.9811401619292" width="316.416"><g><svg viewBox="0 0 316.416 52.32130013106159" height="52.32130013106159" width="316.416"><g id="textblocktransform"><svg viewBox="0 0 316.416 52.32130013106159" height="52.32130013106159" width="316.416" id="textblock"><g><svg viewBox="0 0 316.416 52.32130013106159" height="52.32130013106159" width="316.416"><g transform="matrix(1,0,0,1,0,0)"><svg width="316.416" viewBox="-3.15 -37 228.88 37.85" height="52.32130013106159" data-palette-color="#0074d9"><path d="M39.95-5.45Q40.15-4.95 40.15-4.5L40.15-4.5Q40.15-3.35 39.1-2.23 38.05-1.1 36.58-0.4 35.1 0.3 33.95 0.3L33.95 0.3Q31.35 0.3 30.18-2.88 29-6.05 28.35-10.6L28.35-10.6Q28.2-11.65 27.8-11.98 27.4-12.3 26.35-12.3L26.35-12.3 19.45-12.25Q17.95-12.25 15.75-12.35L15.75-12.35 15.15-11.4Q12.55-7.2 10.83-4.88 9.1-2.55 6.95-1 4.8 0.55 2.15 0.55L2.15 0.55Q0.3 0.55-0.88-0.15-2.05-0.85-2.6-1.85-3.15-2.85-3.15-3.75L-3.15-3.75Q-3.15-4.7-2.65-5.48-2.15-6.25-1.5-6.6L-1.5-6.6Q-1.5-4.45-0.48-3.13 0.55-1.8 2.5-1.8L2.5-1.8Q5.2-1.8 7.65-4.42 10.1-7.05 13.5-12.55L13.5-12.55Q10.85-12.85 10.7-13.55L10.7-13.55Q10.6-13.8 10.83-14.4 11.05-15 11.35-15.3L11.35-15.3Q12.1-15 14.8-14.65L14.8-14.65Q15.4-15.7 16.4-17.3L16.4-17.3Q25-31.55 27.5-35.5L27.5-35.5Q28.05-36.4 28.55-36.7 29.05-37 29.65-37L29.65-37Q30.45-37 31.3-36.75L31.3-36.75Q30.25-34.9 30.15-30.5L30.15-30.5 30.1-28.05Q30.1-22.95 30.5-16.7L30.5-16.7Q30.95-9.6 31.88-5.98 32.8-2.35 34.95-2.35L34.95-2.35Q36-2.35 37.38-3.23 38.75-4.1 39.95-5.45L39.95-5.45ZM22.85-14.15Q24.2-14.15 27.95-14.3L27.95-14.3Q27.85-18 27.78-22.48 27.7-26.95 27.65-30.25L27.65-30.25 27.65-31.9Q21.9-22.25 17.05-14.4L17.05-14.4Q20.3-14.15 22.85-14.15L22.85-14.15ZM66.15-17.85Q66.35-17.8 66.5-17.55 66.65-17.3 66.65-17L66.65-17Q66.65-15.95 65.67-14.98 64.7-14 63.12-13.4 61.55-12.8 59.95-12.8L59.95-12.8Q57.45-12.8 55.67-14.1 53.9-15.4 53.4-17.75L53.4-17.75Q51.15-17.5 49.27-14.9 47.4-12.3 46.65-9.25L46.65-9.25Q46.55-8.75 45.9-6.18 45.25-3.6 44.65-0.1L44.65-0.1Q44.6 0.05 44.52 0.13 44.45 0.2 44.2 0.2L44.2 0.2Q43.85 0.2 43.15-0.1 42.45-0.4 42.45-0.75L42.45-0.75Q42.45-1.45 42.7-2.6L42.7-2.6Q45.75-16.7 46.65-20.05L46.65-20.05Q46.75-20.5 46.87-20.65 47-20.8 47.3-20.8L47.3-20.8Q47.5-20.8 48.15-20.48 48.8-20.15 49.2-19.8L49.2-19.8 48.3-16.9 48-15.9Q49.15-17.7 50.65-18.8 52.15-19.9 53.85-19.9L53.85-19.9Q54.35-19.9 54.85-19.8 55.35-19.7 55.55-19.55L55.55-19.55Q55.55-17.1 56.82-15.93 58.1-14.75 60.4-14.75L60.4-14.75Q62.45-14.75 63.8-15.45 65.15-16.15 66.15-17.85L66.15-17.85ZM84.65-17.85Q84.84-17.8 85-17.55 85.15-17.3 85.15-17L85.15-17Q85.15-15.95 84.17-14.98 83.2-14 81.62-13.4 80.05-12.8 78.45-12.8L78.45-12.8Q75.95-12.8 74.17-14.1 72.4-15.4 71.9-17.75L71.9-17.75Q69.65-17.5 67.77-14.9 65.9-12.3 65.15-9.25L65.15-9.25Q65.05-8.75 64.4-6.18 63.75-3.6 63.15-0.1L63.15-0.1Q63.1 0.05 63.02 0.13 62.95 0.2 62.7 0.2L62.7 0.2Q62.35 0.2 61.65-0.1 60.95-0.4 60.95-0.75L60.95-0.75Q60.95-1.45 61.2-2.6L61.2-2.6Q64.25-16.7 65.15-20.05L65.15-20.05Q65.25-20.5 65.37-20.65 65.5-20.8 65.8-20.8L65.8-20.8Q66-20.8 66.65-20.48 67.3-20.15 67.7-19.8L67.7-19.8 66.8-16.9 66.5-15.9Q67.65-17.7 69.15-18.8 70.65-19.9 72.34-19.9L72.34-19.9Q72.84-19.9 73.34-19.8 73.84-19.7 74.05-19.55L74.05-19.55Q74.05-17.1 75.32-15.93 76.59-14.75 78.9-14.75L78.9-14.75Q80.95-14.75 82.3-15.45 83.65-16.15 84.65-17.85L84.65-17.85ZM107.54-17.65Q108.04-17.5 108.04-16.65L108.04-16.65Q108.04-15.4 107.04-14.08 106.04-12.75 104.32-11.9 102.59-11.05 100.54-11.05L100.54-11.05Q97.79-11.05 95.69-12.55L95.69-12.55Q95.39-11.1 94.94-9.6L94.94-9.6Q94.79-9.05 94.29-7.08 93.79-5.1 93.59-3.55L93.59-3.55Q93.24-2.75 92.19-1.83 91.14-0.9 89.69-0.25 88.24 0.4 86.84 0.4L86.84 0.4Q85.29 0.4 83.84-0.4 82.39-1.2 81.47-2.55 80.54-3.9 80.54-5.55L80.54-5.55Q81.24-7.65 81.69-9.5 82.14-11.35 82.54-13.25L82.54-13.25 83.04-15.75Q83.29-16.9 84.39-18.03 85.49-19.15 87.07-19.88 88.64-20.6 90.24-20.6L90.24-20.6Q90.84-20.6 91.94-20.4L91.94-20.4Q92.09-21.55 92.47-22 92.84-22.45 93.69-22.45L93.69-22.45Q94.19-22.45 94.84-22.3L94.84-22.3Q94.59-20.9 94.59-19.9L94.59-19.9Q94.59-17 96.34-15 98.09-13 101.09-13L101.09-13Q103.34-13 104.97-14.2 106.59-15.4 107.54-17.65L107.54-17.65ZM91.39-4.4Q91.79-6.4 92.54-8.95L92.54-8.95Q93.54-12.3 93.84-14.35L93.84-14.35Q92.74-15.75 92.34-17.75L92.34-17.75Q92.34-17.95 92.27-18.07 92.19-18.2 91.94-18.25L91.94-18.25Q91.19-18.55 90.24-18.55L90.24-18.55Q88.39-18.55 87.04-17.55 85.69-16.55 85.34-15.15L85.34-15.15Q85.19-14.55 84.24-10.45L84.24-10.45Q83.79-8.05 83.14-5.7L83.14-5.7Q83.14-3.85 84.39-2.83 85.64-1.8 87.04-1.8L87.04-1.8Q88.24-1.8 89.62-2.65 90.99-3.5 91.39-4.4L91.39-4.4ZM140.99-19.25Q141.34-19.1 141.34-18.4L141.34-18.4Q141.34-16.3 138.99-14.93 136.64-13.55 133.54-13.55L133.54-13.55Q130.09-13.55 127.69-15.5L127.69-15.5Q128.34-13.65 128.34-11.2L128.34-11.2Q128.34-8.05 127.24-5.45 126.14-2.85 124.24-1.38 122.34 0.1 120.04 0.1L120.04 0.1Q117.89 0.1 116.67-1.05 115.44-2.2 114.84-3.7L114.84-3.7Q113.69-1.65 112.02-0.65 110.34 0.35 108.79 0.35L108.79 0.35Q107.14 0.35 105.92-0.65 104.69-1.65 104.07-2.85 103.44-4.05 103.44-4.6L103.44-4.6Q103.94-7.35 105.04-11.4 106.14-15.45 106.99-18.2L106.99-18.2Q107.39-19.4 107.89-20.08 108.39-20.75 109.44-20.75L109.44-20.75Q110.19-20.75 110.44-20.15L110.44-20.15Q109.14-17.7 107.79-12.93 106.44-8.15 105.99-4.9L105.99-4.9Q106.74-1.8 109.04-1.8L109.04-1.8Q110.64-1.8 112.27-3.28 113.89-4.75 114.79-8L114.79-8Q115.19-9.6 115.82-12.5 116.44-15.4 116.84-17.55L116.84-17.55Q118.09-17.55 118.57-17.2 119.04-16.85 119.04-16L119.04-16Q119.04-15.05 118.19-11.95L118.19-11.95Q117.44-9.15 117.29-8.3L117.29-8.3Q116.84-6.05 116.84-4.6L116.84-4.6Q117.09-3.75 117.99-2.75 118.89-1.75 120.29-1.75L120.29-1.75Q121.64-1.75 122.97-2.83 124.29-3.9 125.17-6.05 126.04-8.2 126.04-11.15L126.04-11.15Q126.04-13.5 125.57-15.03 125.09-16.55 124.29-18.1L124.29-18.1Q123.84-19 123.79-19.15L123.79-19.15Q123.99-19.65 124.47-20.15 124.94-20.65 125.19-20.65L125.19-20.65Q125.39-20.65 125.74-20.18 126.09-19.7 126.19-19.6L126.19-19.6Q127.49-17.8 129.06-16.57 130.64-15.35 133.34-15.35L133.34-15.35Q135.54-15.35 137.64-16.35 139.74-17.35 140.99-19.25L140.99-19.25ZM169.64-18.55Q173.39-18.15 175.79-16 178.19-13.85 178.19-10.4L178.19-10.4Q178.19-7.7 176.66-5.13 175.14-2.55 172.01-0.85 168.89 0.85 164.29 0.85L164.29 0.85Q161.04 0.85 158.19 0.03 155.34-0.8 153.79-2L153.79-2Q153.44-1 152.94-0.68 152.44-0.35 151.69-0.35L151.69-0.35Q151.34-0.35 151.06-0.45 150.79-0.55 150.29-0.75L150.29-0.75Q151.39-2.7 151.89-4.8L151.89-4.8Q158.19-30.85 158.19-32.85L158.19-32.85Q158.19-33.15 158.01-33.27 157.84-33.4 157.39-33.4L157.39-33.4Q156.59-33.4 154.19-32.9L154.19-32.9Q151.89-32.4 151.19-32.4L151.19-32.4Q149.69-32.4 149.69-33.8L149.69-33.8Q149.69-34.3 149.76-34.85 149.84-35.4 149.99-35.85L149.99-35.85Q150.44-35.4 151.09-35.3 151.74-35.2 153.69-35.15L153.69-35.15 158.59-35.05Q158.79-35.05 159.19-35.02 159.59-35 160.54-35L160.54-35Q166.34-34.85 169.69-34.45 173.04-34.05 175.29-32.58 177.54-31.1 177.54-28L177.54-28Q177.54-24.9 175.36-22.33 173.19-19.75 169.64-18.55L169.64-18.55ZM163.69-1.2Q167.14-1.2 169.71-2.43 172.29-3.65 173.66-5.73 175.04-7.8 175.04-10.3L175.04-10.3Q175.04-13.45 172.84-15.25 170.64-17.05 166.79-17.05L166.79-17.05Q163.49-17.05 161.89-16.85L161.89-16.85Q161.34-16.95 161.29-18.05L161.29-18.05 161.29-18.4Q161.29-19.25 161.64-19.55L161.64-19.55Q161.99-19.55 163.14-19.45 164.29-19.35 165.19-19.35L165.19-19.35Q169.19-19.35 171.81-21.45 174.44-23.55 174.44-27.1L174.44-27.1Q174.44-30.5 171.79-31.98 169.14-33.45 164.29-33.45L164.29-33.45Q162.59-33.45 161.84-33.13 161.09-32.8 160.64-31.83 160.19-30.85 159.49-28.2L159.49-28.2Q156.94-18.65 154.29-4.4L154.29-4.4Q158.29-1.2 163.69-1.2L163.69-1.2ZM205.93-11.95Q206.83-11.8 206.83-10.95L206.83-10.95Q206.83-8.95 204.26-6.28 201.68-3.6 198.18-1.68 194.68 0.25 192.33 0.25L192.33 0.25Q190.08 0.25 188.43-0.93 186.78-2.1 185.91-3.55 185.03-5 185.03-5.7L185.03-5.7Q185.83-8.55 186.78-13.6L186.78-13.6 187.33-16.4Q187.53-17.4 188.78-18.48 190.03-19.55 191.58-20.28 193.13-21 194.08-21L194.08-21Q194.83-21 195.91-20.53 196.98-20.05 197.81-19.05 198.63-18.05 198.63-16.5L198.63-16.5Q198.63-14.7 197.43-13.1 196.23-11.5 193.88-10.5 191.53-9.5 188.23-9.5L188.23-9.5 187.53-6.15Q187.53-5.7 188.06-4.65 188.58-3.6 189.76-2.75 190.93-1.9 192.73-1.9L192.73-1.9Q195.13-1.9 197.78-3.48 200.43-5.05 202.63-7.4 204.83-9.75 205.93-11.95L205.93-11.95ZM193.68-18.95Q193.08-18.95 192.13-18.45 191.18-17.95 190.41-17.2 189.63-16.45 189.48-15.8L189.48-15.8Q188.98-13.55 188.58-11.25L188.58-11.25Q192.43-11.4 194.38-12.78 196.33-14.15 196.33-15.9L196.33-15.9Q196.33-17.15 195.43-18.05 194.53-18.95 193.68-18.95L193.68-18.95ZM224.83-11.95Q225.73-11.8 225.73-10.95L225.73-10.95Q225.73-8.95 223.16-6.28 220.58-3.6 217.08-1.68 213.58 0.25 211.23 0.25L211.23 0.25Q208.98 0.25 207.33-0.93 205.68-2.1 204.81-3.55 203.93-5 203.93-5.7L203.93-5.7Q204.73-8.55 205.68-13.6L205.68-13.6 206.23-16.4Q206.43-17.4 207.68-18.48 208.93-19.55 210.48-20.28 212.03-21 212.98-21L212.98-21Q213.73-21 214.81-20.53 215.88-20.05 216.71-19.05 217.53-18.05 217.53-16.5L217.53-16.5Q217.53-14.7 216.33-13.1 215.13-11.5 212.78-10.5 210.43-9.5 207.13-9.5L207.13-9.5 206.43-6.15Q206.43-5.7 206.96-4.65 207.48-3.6 208.66-2.75 209.83-1.9 211.63-1.9L211.63-1.9Q214.03-1.9 216.68-3.48 219.33-5.05 221.53-7.4 223.73-9.75 224.83-11.95L224.83-11.95ZM212.58-18.95Q211.98-18.95 211.03-18.45 210.08-17.95 209.31-17.2 208.53-16.45 208.38-15.8L208.38-15.8Q207.88-13.55 207.48-11.25L207.48-11.25Q211.33-11.4 213.28-12.78 215.23-14.15 215.23-15.9L215.23-15.9Q215.23-17.15 214.33-18.05 213.43-18.95 212.58-18.95L212.58-18.95Z" opacity="1" transform="matrix(1,0,0,1,0,0)" fill="#000000" class="wordmark-text-0" data-fill-palette-color="primary" id="text-0"></path></svg></g></svg></g></svg></g></svg></g><g transform="matrix(1,0,0,1,115.93420707651465,64.67310338080209)"><svg viewBox="0 0 84.54758584697069 72.30803678112713" height="72.30803678112713" width="84.54758584697069"><g><svg xmlns="http://www.w3.org/2000/svg" xmlns:xlink="http://www.w3.org/1999/xlink" version="1.1" x="0" y="0" viewBox="6.499774258525732 16.505864385706992 88.43201486472165 75.63013561429301" enable-background="new 0 0 100 100" xml:space="preserve" height="72.30803678112713" width="84.54758584697069" class="icon-icon-0" data-fill-palette-color="accent" id="icon-0"><g fill="#111111" data-fill-palette-color="accent"><path d="M93.508 30.614c-2.075-2.125-6.327-2.919-9.858-1.079-0.177-0.223-0.358-0.429-0.543-0.613-0.197-0.197-0.407-0.373-0.625-0.539 1.813-3.572 0.82-8.028-1.498-10.293-2.045-1.997-4.814-2.114-7.227-0.305-0.662 0.497-0.797 1.438-0.3 2.101 0.498 0.663 1.438 0.796 2.101 0.3 1.247-0.938 2.337-0.919 3.329 0.051 1.512 1.477 2.087 4.617 0.82 6.936-0.493-0.092-1.012-0.142-1.56-0.142-2.401 0-4.794 0.897-6.223 1.434l-0.3 0.112c-1.289 0.478-2.521 0.98-3.703 1.506-3.106-0.812-6.442-1.402-9.431-1.402-3.808 0-6.619 0.947-8.356 2.815-1.467 1.578-2.112 3.736-1.917 6.417 0.197 2.696 1.322 4.637 3.253 5.719-0.347 0.627-0.673 1.263-0.955 1.914-3.468 8.013-0.662 14.854-0.541 15.143l0.232 0.552 0.549 0.24c0.125 0.054 3.105 1.334 7.429 1.334 3.051 0 6.562-0.614 10.141-2.485 0.018 0.036 0.03 0.075 0.049 0.111 0.741 1.441 2.356 3.214 5.839 3.468 0.315 0.022 0.62 0.034 0.915 0.034 3.056 0 5.408-1.235 6.802-3.571 2.321-3.891 1.617-10.292 0.183-15.879 0.706-1.479 1.389-3.067 2.042-4.782 1.226-3.22 1.295-5.65 0.826-7.472 2.312-1.245 5.109-0.828 6.382 0.474 0.814 0.833 0.759 1.881-0.166 3.112-0.497 0.663-0.362 1.604 0.3 2.101 0.271 0.202 0.586 0.3 0.899 0.3 0.456 0 0.906-0.207 1.201-0.6C95.761 34.738 94.97 32.111 93.508 30.614zM79.354 58.833c-0.953 1.599-2.525 2.259-4.922 2.082-2.271-0.165-3.022-1.134-3.39-1.848-0.051-0.099-0.079-0.217-0.123-0.322-0.395-0.951-0.502-2.151-0.388-3.516 0.078-0.943 0.25-1.954 0.51-3.018 0.417-1.703 1.037-3.518 1.752-5.319 0.533-1.341 1.116-2.67 1.715-3.941 0.809-1.717 1.638-3.324 2.386-4.686l0.081 0.081c1.127 2.778 2.306 6.56 2.956 10.238C80.646 52.63 80.72 56.543 79.354 58.833zM51.21 37.694c-0.134-1.841 0.232-3.2 1.121-4.156 1.147-1.233 3.22-1.858 6.16-1.858 1.633 0 3.399 0.2 5.176 0.522 3.716 0.675 7.47 1.891 10.128 2.965l0.056 0.056c-1.245 0.682-2.87 1.532-4.683 2.389-1.244 0.589-2.576 1.178-3.938 1.719-1.776 0.707-3.597 1.321-5.331 1.739-1.172 0.282-2.3 0.469-3.349 0.529-0.237 0.014-0.479 0.031-0.707 0.031-1.146 0-2.056-0.167-2.757-0.521C51.923 40.521 51.336 39.416 51.21 37.694zM71.421 39.864l0.825 0.825c-0.592 1.208-1.195 2.521-1.768 3.889l-2.947-2.947C68.898 41.057 70.214 40.453 71.421 39.864zM62.341 43.511l6.267 6.268c-0.467 1.592-0.821 3.172-0.989 4.667l-9.933-9.932C59.169 44.342 60.745 43.985 62.341 43.511zM60.155 59.711l-8.198-8.198c0.181-1.398 0.551-2.907 1.19-4.467l11.587 11.587C63.151 59.225 61.61 59.56 60.155 59.711zM81.352 38.641c-0.186 0.487-0.374 0.961-0.564 1.426-0.787-2.304-1.593-4.218-2.178-5.388-0.074-0.28-0.224-0.531-0.438-0.727-0.195-0.214-0.449-0.364-0.73-0.437-1.188-0.601-2.924-1.333-4.974-2.049 0.068-0.025 0.133-0.053 0.201-0.078l0.31-0.116c1.239-0.465 3.312-1.242 5.169-1.242 1.228 0 2.156 0.331 2.838 1.013C82.551 32.609 82.675 35.165 81.352 38.641z" fill="#000000" data-fill-palette-color="accent"></path><g fill="#111111" data-fill-palette-color="accent"><path d="M44.735 66.188c-0.575 0-1.125-0.333-1.372-0.893-0.336-0.758 0.006-1.644 0.764-1.979 1.37-0.607 2.185-1.014 2.202-1.022 0.742-0.37 1.643-0.068 2.012 0.671 0.371 0.74 0.071 1.642-0.669 2.013 0 0-0.865 0.433-2.33 1.081C45.145 66.146 44.938 66.188 44.735 66.188z" fill="#000000" data-fill-palette-color="accent"></path><path d="M15.426 90.381c-0.628 0-1.213-0.396-1.423-1.024-0.263-0.785 0.161-1.636 0.947-1.898 1.608-0.538 3.113-1.157 4.474-1.841 0.738-0.374 1.643-0.075 2.014 0.666 0.372 0.74 0.074 1.642-0.666 2.014-1.488 0.748-3.126 1.423-4.87 2.007C15.744 90.356 15.583 90.381 15.426 90.381zM24.344 85.732c-0.425 0-0.846-0.179-1.143-0.527-0.537-0.63-0.462-1.577 0.169-2.114 0.206-0.176 0.401-0.353 0.585-0.531 0.997-0.971 1.938-1.957 2.794-2.93 0.545-0.622 1.495-0.684 2.116-0.136 0.622 0.547 0.684 1.494 0.136 2.116-0.906 1.032-1.901 2.075-2.955 3.101-0.229 0.223-0.474 0.444-0.73 0.663C25.033 85.614 24.688 85.732 24.344 85.732zM30.98 78.137c-0.291 0-0.584-0.084-0.843-0.26-0.685-0.466-0.862-1.398-0.396-2.084 0.953-1.402 1.744-2.803 2.35-4.163 0.337-0.759 1.228-1.1 1.979-0.761 0.758 0.337 1.098 1.223 0.761 1.979-0.678 1.523-1.556 3.082-2.609 4.632C31.932 77.907 31.46 78.137 30.98 78.137zM25.379 71.772c-0.771 0-1.427-0.591-1.493-1.374-0.069-0.825 0.543-1.551 1.369-1.621 1.486-0.125 3.104-0.373 4.808-0.737 0.806-0.171 1.607 0.343 1.78 1.153s-0.343 1.607-1.153 1.78c-1.827 0.391-3.57 0.657-5.183 0.794C25.464 71.771 25.422 71.772 25.379 71.772zM20.336 71.707c-0.065 0-0.132-0.004-0.198-0.013-2.06-0.272-3.858-0.86-5.347-1.749-0.712-0.425-0.944-1.346-0.52-2.057 0.426-0.713 1.347-0.943 2.057-0.52 1.136 0.678 2.55 1.133 4.202 1.351 0.821 0.108 1.399 0.862 1.291 1.684C21.722 71.158 21.077 71.707 20.336 71.707zM35.267 69.73c-0.643 0-1.237-0.417-1.435-1.063-0.03-0.1-0.05-0.2-0.059-0.3-0.26-0.32-0.387-0.745-0.315-1.185 0.12-0.744 0.181-1.484 0.181-2.2 0-0.782-0.073-1.558-0.217-2.304-0.157-0.813 0.375-1.601 1.188-1.757 0.807-0.156 1.6 0.374 1.757 1.188 0.181 0.934 0.271 1.899 0.271 2.872 0 0.413-0.017 0.832-0.049 1.253 0.966-0.32 1.948-0.668 2.938-1.04 0.772-0.291 1.639 0.102 1.932 0.877 0.291 0.775-0.102 1.641-0.877 1.932-1.656 0.622-3.298 1.182-4.878 1.662C35.559 69.71 35.411 69.73 35.267 69.73zM12.181 66.5c-0.551 0-1.081-0.305-1.344-0.831-0.697-1.4-1.146-3.044-1.329-4.884-0.02-0.186-0.035-0.373-0.047-0.558-0.054-0.826 0.573-1.54 1.4-1.594 0.838-0.059 1.54 0.573 1.594 1.4 0.01 0.147 0.021 0.296 0.037 0.448 0.148 1.48 0.495 2.774 1.03 3.849 0.369 0.741 0.067 1.642-0.674 2.012C12.634 66.449 12.405 66.5 12.181 66.5zM33.009 59.24c-0.489 0-0.97-0.239-1.258-0.681-0.805-1.234-1.845-2.341-3.093-3.289-0.66-0.501-0.788-1.441-0.287-2.102s1.441-0.789 2.102-0.287c1.522 1.156 2.799 2.516 3.792 4.039 0.452 0.694 0.256 1.624-0.438 2.076C33.574 59.162 33.29 59.24 33.009 59.24zM11.763 56.698c-0.215 0-0.434-0.046-0.641-0.145-0.749-0.354-1.068-1.248-0.714-1.997 0.869-1.837 2.327-3.289 4.217-4.2 0.744-0.361 1.643-0.047 2.002 0.699 0.36 0.746 0.047 1.643-0.699 2.003-1.282 0.618-2.228 1.554-2.809 2.781C12.863 56.382 12.324 56.698 11.763 56.698zM25.136 53.179c-0.169 0-0.341-0.028-0.509-0.089-1.474-0.531-3.018-0.827-4.467-0.855-0.828-0.017-1.486-0.701-1.47-1.53 0.017-0.828 0.696-1.437 1.53-1.47 1.771 0.035 3.646 0.393 5.424 1.033 0.779 0.281 1.184 1.141 0.902 1.92C26.326 52.799 25.75 53.179 25.136 53.179z" fill="#000000" data-fill-palette-color="accent"></path><path d="M7.998 92.136c-0.734 0-1.376-0.54-1.483-1.288-0.117-0.82 0.453-1.58 1.273-1.697 0.783-0.111 1.583-0.25 2.377-0.412 0.812-0.164 1.604 0.357 1.77 1.17 0.165 0.812-0.358 1.604-1.17 1.77C9.913 91.852 9.054 92 8.212 92.121 8.141 92.131 8.068 92.136 7.998 92.136z" fill="#000000" data-fill-palette-color="accent"></path></g></g></svg></g></svg></g><g></g></svg></g></svg></g></svg></g><defs></defs></svg><rect width="375.07953" height="238.220572" fill="none" stroke="none" visibility="hidden"></rect></g></svg></g></svg>